<?xml version="1.0" encoding="UTF-8" standalone="no"?>
<!DOCTYPE svg PUBLIC "-//W3C//DTD SVG 1.1//EN"
 "http://www.w3.org/Graphics/SVG/1.1/DTD/svg11.dtd">
<!-- Generated by graphviz version 2.38.0 (20140413.2041)
 -->
<!-- Title: snakemake_dag Pages: 1 -->
<svg width="281pt" height="692pt"
 viewBox="0.00 0.00 281.00 692.00" xmlns="http://www.w3.org/2000/svg" xmlns:xlink="http://www.w3.org/1999/xlink">
<g id="graph0" class="graph" transform="scale(1 1) rotate(0) translate(4 688)">
<title>snakemake_dag</title>
<polygon fill="white" stroke="none" points="-4,4 -4,-688 277,-688 277,4 -4,4"/>
<!-- 0 -->
<g id="node1" class="node"><title>0</title>
<path fill="none" stroke="#d8b456" stroke-width="2" d="M182,-36C182,-36 76,-36 76,-36 70,-36 64,-30 64,-24 64,-24 64,-12 64,-12 64,-6 70,-0 76,-0 76,-0 182,-0 182,-0 188,-0 194,-6 194,-12 194,-12 194,-24 194,-24 194,-30 188,-36 182,-36"/>
<text text-anchor="middle" x="129" y="-15.5" font-family="sans" font-size="10.00">VaDiR_summary_report</text>
</g>
<!-- 1 -->
<g id="node2" class="node"><title>1</title>
<path fill="none" stroke="#5682d8" stroke-width="2" d="M192.5,-108C192.5,-108 65.5,-108 65.5,-108 59.5,-108 53.5,-102 53.5,-96 53.5,-96 53.5,-84 53.5,-84 53.5,-78 59.5,-72 65.5,-72 65.5,-72 192.5,-72 192.5,-72 198.5,-72 204.5,-78 204.5,-84 204.5,-84 204.5,-96 204.5,-96 204.5,-102 198.5,-108 192.5,-108"/>
<text text-anchor="middle" x="129" y="-87.5" font-family="sans" font-size="10.00">R10_print_recalibrated_bam</text>
</g>
<!-- 1&#45;&gt;0 -->
<g id="edge1" class="edge"><title>1&#45;&gt;0</title>
<path fill="none" stroke="grey" stroke-width="2" d="M129,-71.6966C129,-63.9827 129,-54.7125 129,-46.1124"/>
<polygon fill="grey" stroke="grey" stroke-width="2" points="132.5,-46.1043 129,-36.1043 125.5,-46.1044 132.5,-46.1043"/>
</g>
<!-- 2 -->
<g id="node3" class="node"><title>2</title>
<path fill="none" stroke="#56d86b" stroke-width="2" d="M176.5,-252C176.5,-252 81.5,-252 81.5,-252 75.5,-252 69.5,-246 69.5,-240 69.5,-240 69.5,-228 69.5,-228 69.5,-222 75.5,-216 81.5,-216 81.5,-216 176.5,-216 176.5,-216 182.5,-216 188.5,-222 188.5,-228 188.5,-228 188.5,-240 188.5,-240 188.5,-246 182.5,-252 176.5,-252"/>
<text text-anchor="middle" x="129" y="-231.5" font-family="sans" font-size="10.00">R07_mark_duplicates</text>
</g>
<!-- 2&#45;&gt;1 -->
<g id="edge2" class="edge"><title>2&#45;&gt;1</title>
<path fill="none" stroke="grey" stroke-width="2" d="M113.817,-215.703C106.268,-205.939 97.9337,-193.095 94,-180 89.3969,-164.676 89.3969,-159.324 94,-144 96.9195,-134.281 102.263,-124.7 107.911,-116.415"/>
<polygon fill="grey" stroke="grey" stroke-width="2" points="110.764,-118.442 113.817,-108.297 105.104,-114.324 110.764,-118.442"/>
</g>
<!-- 3 -->
<g id="node4" class="node"><title>3</title>
<path fill="none" stroke="#56d89a" stroke-width="2" d="M253,-180C253,-180 115,-180 115,-180 109,-180 103,-174 103,-168 103,-168 103,-156 103,-156 103,-150 109,-144 115,-144 115,-144 253,-144 253,-144 259,-144 265,-150 265,-156 265,-156 265,-168 265,-168 265,-174 259,-180 253,-180"/>
<text text-anchor="middle" x="184" y="-159.5" font-family="sans" font-size="10.00">R08_base_recalibration_report</text>
</g>
<!-- 2&#45;&gt;3 -->
<g id="edge5" class="edge"><title>2&#45;&gt;3</title>
<path fill="none" stroke="grey" stroke-width="2" d="M142.596,-215.697C149.123,-207.389 157.068,-197.277 164.247,-188.141"/>
<polygon fill="grey" stroke="grey" stroke-width="2" points="167.135,-190.13 170.561,-180.104 161.631,-185.805 167.135,-190.13"/>
</g>
<!-- 3&#45;&gt;1 -->
<g id="edge3" class="edge"><title>3&#45;&gt;1</title>
<path fill="none" stroke="grey" stroke-width="2" d="M170.404,-143.697C163.877,-135.389 155.932,-125.277 148.753,-116.141"/>
<polygon fill="grey" stroke="grey" stroke-width="2" points="151.369,-113.805 142.439,-108.104 145.865,-118.13 151.369,-113.805"/>
</g>
<!-- 4 -->
<g id="node5" class="node"><title>4</title>
<path fill="none" stroke="#56b1d8" stroke-width="2" d="M199.5,-324C199.5,-324 58.5,-324 58.5,-324 52.5,-324 46.5,-318 46.5,-312 46.5,-312 46.5,-300 46.5,-300 46.5,-294 52.5,-288 58.5,-288 58.5,-288 199.5,-288 199.5,-288 205.5,-288 211.5,-294 211.5,-300 211.5,-300 211.5,-312 211.5,-312 211.5,-318 205.5,-324 199.5,-324"/>
<text text-anchor="middle" x="129" y="-303.5" font-family="sans" font-size="10.00">R06_add_read_groups_to_bam</text>
</g>
<!-- 4&#45;&gt;2 -->
<g id="edge4" class="edge"><title>4&#45;&gt;2</title>
<path fill="none" stroke="grey" stroke-width="2" d="M129,-287.697C129,-279.983 129,-270.712 129,-262.112"/>
<polygon fill="grey" stroke="grey" stroke-width="2" points="132.5,-262.104 129,-252.104 125.5,-262.104 132.5,-262.104"/>
</g>
<!-- 5 -->
<g id="node6" class="node"><title>5</title>
<path fill="none" stroke="#70d856" stroke-width="2" d="M246,-396C246,-396 12,-396 12,-396 6,-396 0,-390 0,-384 0,-384 0,-372 0,-372 0,-366 6,-360 12,-360 12,-360 246,-360 246,-360 252,-360 258,-366 258,-372 258,-372 258,-384 258,-384 258,-390 252,-396 246,-396"/>
<text text-anchor="middle" x="129" y="-375.5" font-family="sans" font-size="10.00">R05_merged_mapped_and_unampped_dna_reads</text>
</g>
<!-- 5&#45;&gt;4 -->
<g id="edge6" class="edge"><title>5&#45;&gt;4</title>
<path fill="none" stroke="grey" stroke-width="2" d="M129,-359.697C129,-351.983 129,-342.712 129,-334.112"/>
<polygon fill="grey" stroke="grey" stroke-width="2" points="132.5,-334.104 129,-324.104 125.5,-334.104 132.5,-334.104"/>
</g>
<!-- 6 -->
<g id="node7" class="node"><title>6</title>
<path fill="none" stroke="#9fd856" stroke-width="2" d="M222.5,-468C222.5,-468 133.5,-468 133.5,-468 127.5,-468 121.5,-462 121.5,-456 121.5,-456 121.5,-444 121.5,-444 121.5,-438 127.5,-432 133.5,-432 133.5,-432 222.5,-432 222.5,-432 228.5,-432 234.5,-438 234.5,-444 234.5,-444 234.5,-456 234.5,-456 234.5,-462 228.5,-468 222.5,-468"/>
<text text-anchor="middle" x="178" y="-447.5" font-family="sans" font-size="10.00">R04_DNA_bwa_map</text>
</g>
<!-- 6&#45;&gt;5 -->
<g id="edge7" class="edge"><title>6&#45;&gt;5</title>
<path fill="none" stroke="grey" stroke-width="2" d="M165.888,-431.697C160.132,-423.474 153.138,-413.483 146.794,-404.421"/>
<polygon fill="grey" stroke="grey" stroke-width="2" points="149.575,-402.29 140.973,-396.104 143.84,-406.304 149.575,-402.29"/>
</g>
<!-- 7 -->
<g id="node8" class="node"><title>7</title>
<path fill="none" stroke="#d88556" stroke-width="2" d="M173,-684C173,-684 85,-684 85,-684 79,-684 73,-678 73,-672 73,-672 73,-660 73,-660 73,-654 79,-648 85,-648 85,-648 173,-648 173,-648 179,-648 185,-654 185,-660 185,-660 185,-672 185,-672 185,-678 179,-684 173,-684"/>
<text text-anchor="middle" x="129" y="-663.5" font-family="sans" font-size="10.00">R01_fastq_to_ubam</text>
</g>
<!-- 7&#45;&gt;5 -->
<g id="edge8" class="edge"><title>7&#45;&gt;5</title>
<path fill="none" stroke="grey" stroke-width="2" d="M122.849,-647.994C119.296,-637.685 114.959,-624.209 112,-612 93.1573,-534.251 93.1573,-509.749 112,-432 114.104,-423.32 116.904,-414 119.624,-405.633"/>
<polygon fill="grey" stroke="grey" stroke-width="2" points="122.991,-406.6 122.849,-396.006 116.354,-404.376 122.991,-406.6"/>
</g>
<!-- 9 -->
<g id="node10" class="node"><title>9</title>
<path fill="none" stroke="#56d8c9" stroke-width="2" d="M222.5,-612C222.5,-612 133.5,-612 133.5,-612 127.5,-612 121.5,-606 121.5,-600 121.5,-600 121.5,-588 121.5,-588 121.5,-582 127.5,-576 133.5,-576 133.5,-576 222.5,-576 222.5,-576 228.5,-576 234.5,-582 234.5,-588 234.5,-588 234.5,-600 234.5,-600 234.5,-606 228.5,-612 222.5,-612"/>
<text text-anchor="middle" x="178" y="-591.5" font-family="sans" font-size="10.00">R02_mark_adapters</text>
</g>
<!-- 7&#45;&gt;9 -->
<g id="edge11" class="edge"><title>7&#45;&gt;9</title>
<path fill="none" stroke="grey" stroke-width="2" d="M141.112,-647.697C146.868,-639.474 153.862,-629.483 160.206,-620.421"/>
<polygon fill="grey" stroke="grey" stroke-width="2" points="163.16,-622.304 166.027,-612.104 157.425,-618.29 163.16,-622.304"/>
</g>
<!-- 8 -->
<g id="node9" class="node"><title>8</title>
<path fill="none" stroke="#d85656" stroke-width="2" d="M261,-540C261,-540 121,-540 121,-540 115,-540 109,-534 109,-528 109,-528 109,-516 109,-516 109,-510 115,-504 121,-504 121,-504 261,-504 261,-504 267,-504 273,-510 273,-516 273,-516 273,-528 273,-528 273,-534 267,-540 261,-540"/>
<text text-anchor="middle" x="191" y="-519.5" font-family="sans" font-size="10.00">R03_sam_to_interleaved_fastq</text>
</g>
<!-- 8&#45;&gt;6 -->
<g id="edge9" class="edge"><title>8&#45;&gt;6</title>
<path fill="none" stroke="grey" stroke-width="2" d="M187.787,-503.697C186.354,-495.983 184.632,-486.712 183.035,-478.112"/>
<polygon fill="grey" stroke="grey" stroke-width="2" points="186.444,-477.297 181.177,-468.104 179.561,-478.575 186.444,-477.297"/>
</g>
<!-- 9&#45;&gt;8 -->
<g id="edge10" class="edge"><title>9&#45;&gt;8</title>
<path fill="none" stroke="grey" stroke-width="2" d="M181.213,-575.697C182.646,-567.983 184.368,-558.712 185.965,-550.112"/>
<polygon fill="grey" stroke="grey" stroke-width="2" points="189.439,-550.575 187.823,-540.104 182.556,-549.297 189.439,-550.575"/>
</g>
</g>
</svg>
