<?xml version="1.0" encoding="UTF-8" standalone="no"?>
<!DOCTYPE svg PUBLIC "-//W3C//DTD SVG 1.1//EN"
 "http://www.w3.org/Graphics/SVG/1.1/DTD/svg11.dtd">
<!-- Generated by graphviz version 2.40.1 (20161225.0304)
 -->
<!-- Title: snakemake_dag Pages: 1 -->
<svg width="234pt" height="692pt"
 viewBox="0.00 0.00 234.00 692.00" xmlns="http://www.w3.org/2000/svg" xmlns:xlink="http://www.w3.org/1999/xlink">
<g id="graph0" class="graph" transform="scale(1 1) rotate(0) translate(4 688)">
<title>snakemake_dag</title>
<polygon fill="#ffffff" stroke="transparent" points="-4,4 -4,-688 230,-688 230,4 -4,4"/>
<!-- 0 -->
<g id="node1" class="node">
<title>0</title>
<path fill="none" stroke="#56b1d8" stroke-width="2" stroke-dasharray="5,2" d="M154,-36C154,-36 56,-36 56,-36 50,-36 44,-30 44,-24 44,-24 44,-12 44,-12 44,-6 50,0 56,0 56,0 154,0 154,0 160,0 166,-6 166,-12 166,-12 166,-24 166,-24 166,-30 160,-36 154,-36"/>
<text text-anchor="middle" x="105" y="-15.5" font-family="sans" font-size="10.00" fill="#000000">VaDiR_summary_report</text>
</g>
<!-- 1 -->
<g id="node2" class="node">
<title>1</title>
<path fill="none" stroke="#70d856" stroke-width="2" stroke-dasharray="5,2" d="M173.5,-108C173.5,-108 36.5,-108 36.5,-108 30.5,-108 24.5,-102 24.5,-96 24.5,-96 24.5,-84 24.5,-84 24.5,-78 30.5,-72 36.5,-72 36.5,-72 173.5,-72 173.5,-72 179.5,-72 185.5,-78 185.5,-84 185.5,-84 185.5,-96 185.5,-96 185.5,-102 179.5,-108 173.5,-108"/>
<text text-anchor="middle" x="105" y="-87.5" font-family="sans" font-size="10.00" fill="#000000">analyze_base_quality_covariates</text>
</g>
<!-- 1&#45;&gt;0 -->
<g id="edge1" class="edge">
<title>1&#45;&gt;0</title>
<path fill="none" stroke="#c0c0c0" stroke-width="2" d="M105,-71.8314C105,-64.131 105,-54.9743 105,-46.4166"/>
<polygon fill="#c0c0c0" stroke="#c0c0c0" stroke-width="2" points="108.5001,-46.4132 105,-36.4133 101.5001,-46.4133 108.5001,-46.4132"/>
</g>
<!-- 2 -->
<g id="node3" class="node">
<title>2</title>
<path fill="none" stroke="#9fd856" stroke-width="2" stroke-dasharray="5,2" d="M155.5,-180C155.5,-180 54.5,-180 54.5,-180 48.5,-180 42.5,-174 42.5,-168 42.5,-168 42.5,-156 42.5,-156 42.5,-150 48.5,-144 54.5,-144 54.5,-144 155.5,-144 155.5,-144 161.5,-144 167.5,-150 167.5,-156 167.5,-156 167.5,-168 167.5,-168 167.5,-174 161.5,-180 155.5,-180"/>
<text text-anchor="middle" x="105" y="-159.5" font-family="sans" font-size="10.00" fill="#000000">base_recalibration_report</text>
</g>
<!-- 2&#45;&gt;1 -->
<g id="edge2" class="edge">
<title>2&#45;&gt;1</title>
<path fill="none" stroke="#c0c0c0" stroke-width="2" d="M105,-143.8314C105,-136.131 105,-126.9743 105,-118.4166"/>
<polygon fill="#c0c0c0" stroke="#c0c0c0" stroke-width="2" points="108.5001,-118.4132 105,-108.4133 101.5001,-118.4133 108.5001,-118.4132"/>
</g>
<!-- 3 -->
<g id="node4" class="node">
<title>3</title>
<path fill="none" stroke="#56d8c9" stroke-width="2" stroke-dasharray="5,2" d="M137,-252C137,-252 73,-252 73,-252 67,-252 61,-246 61,-240 61,-240 61,-228 61,-228 61,-222 67,-216 73,-216 73,-216 137,-216 137,-216 143,-216 149,-222 149,-228 149,-228 149,-240 149,-240 149,-246 143,-252 137,-252"/>
<text text-anchor="middle" x="105" y="-231.5" font-family="sans" font-size="10.00" fill="#000000">mark_duplicates</text>
</g>
<!-- 3&#45;&gt;2 -->
<g id="edge3" class="edge">
<title>3&#45;&gt;2</title>
<path fill="none" stroke="#c0c0c0" stroke-width="2" d="M105,-215.8314C105,-208.131 105,-198.9743 105,-190.4166"/>
<polygon fill="#c0c0c0" stroke="#c0c0c0" stroke-width="2" points="108.5001,-190.4132 105,-180.4133 101.5001,-190.4133 108.5001,-190.4132"/>
</g>
<!-- 4 -->
<g id="node5" class="node">
<title>4</title>
<path fill="none" stroke="#ced856" stroke-width="2" stroke-dasharray="5,2" d="M157,-324C157,-324 53,-324 53,-324 47,-324 41,-318 41,-312 41,-312 41,-300 41,-300 41,-294 47,-288 53,-288 53,-288 157,-288 157,-288 163,-288 169,-294 169,-300 169,-300 169,-312 169,-312 169,-318 163,-324 157,-324"/>
<text text-anchor="middle" x="105" y="-303.5" font-family="sans" font-size="10.00" fill="#000000">add_read_groups_to_bam</text>
</g>
<!-- 4&#45;&gt;3 -->
<g id="edge4" class="edge">
<title>4&#45;&gt;3</title>
<path fill="none" stroke="#c0c0c0" stroke-width="2" d="M105,-287.8314C105,-280.131 105,-270.9743 105,-262.4166"/>
<polygon fill="#c0c0c0" stroke="#c0c0c0" stroke-width="2" points="108.5001,-262.4132 105,-252.4133 101.5001,-262.4133 108.5001,-262.4132"/>
</g>
<!-- 5 -->
<g id="node6" class="node">
<title>5</title>
<path fill="none" stroke="#d85656" stroke-width="2" stroke-dasharray="5,2" d="M198,-396C198,-396 12,-396 12,-396 6,-396 0,-390 0,-384 0,-384 0,-372 0,-372 0,-366 6,-360 12,-360 12,-360 198,-360 198,-360 204,-360 210,-366 210,-372 210,-372 210,-384 210,-384 210,-390 204,-396 198,-396"/>
<text text-anchor="middle" x="105" y="-375.5" font-family="sans" font-size="10.00" fill="#000000">merged_mapped_and_unampped_dna_reads</text>
</g>
<!-- 5&#45;&gt;4 -->
<g id="edge5" class="edge">
<title>5&#45;&gt;4</title>
<path fill="none" stroke="#c0c0c0" stroke-width="2" d="M105,-359.8314C105,-352.131 105,-342.9743 105,-334.4166"/>
<polygon fill="#c0c0c0" stroke="#c0c0c0" stroke-width="2" points="108.5001,-334.4132 105,-324.4133 101.5001,-334.4133 108.5001,-334.4132"/>
</g>
<!-- 6 -->
<g id="node7" class="node">
<title>6</title>
<path fill="none" stroke="#5682d8" stroke-width="2" stroke-dasharray="5,2" d="M132.5,-684C132.5,-684 75.5,-684 75.5,-684 69.5,-684 63.5,-678 63.5,-672 63.5,-672 63.5,-660 63.5,-660 63.5,-654 69.5,-648 75.5,-648 75.5,-648 132.5,-648 132.5,-648 138.5,-648 144.5,-654 144.5,-660 144.5,-660 144.5,-672 144.5,-672 144.5,-678 138.5,-684 132.5,-684"/>
<text text-anchor="middle" x="104" y="-663.5" font-family="sans" font-size="10.00" fill="#000000">fastq_to_ubam</text>
</g>
<!-- 6&#45;&gt;5 -->
<g id="edge6" class="edge">
<title>6&#45;&gt;5</title>
<path fill="none" stroke="#c0c0c0" stroke-width="2" d="M100.4176,-647.563C95.0042,-617.5283 85.7022,-556.1496 89,-504 91.131,-470.3022 96.4371,-431.8369 100.3576,-406.3636"/>
<polygon fill="#c0c0c0" stroke="#c0c0c0" stroke-width="2" points="103.8451,-406.7157 101.9397,-396.2937 96.93,-405.6293 103.8451,-406.7157"/>
</g>
<!-- 9 -->
<g id="node10" class="node">
<title>9</title>
<path fill="none" stroke="#d88556" stroke-width="2" stroke-dasharray="5,2" d="M178.5,-612C178.5,-612 121.5,-612 121.5,-612 115.5,-612 109.5,-606 109.5,-600 109.5,-600 109.5,-588 109.5,-588 109.5,-582 115.5,-576 121.5,-576 121.5,-576 178.5,-576 178.5,-576 184.5,-576 190.5,-582 190.5,-588 190.5,-588 190.5,-600 190.5,-600 190.5,-606 184.5,-612 178.5,-612"/>
<text text-anchor="middle" x="150" y="-591.5" font-family="sans" font-size="10.00" fill="#000000">mark_adapters</text>
</g>
<!-- 6&#45;&gt;9 -->
<g id="edge10" class="edge">
<title>6&#45;&gt;9</title>
<path fill="none" stroke="#c0c0c0" stroke-width="2" d="M115.6077,-647.8314C120.7978,-639.7079 127.0232,-629.9637 132.7425,-621.0118"/>
<polygon fill="#c0c0c0" stroke="#c0c0c0" stroke-width="2" points="135.8015,-622.7246 138.236,-612.4133 129.9026,-618.9559 135.8015,-622.7246"/>
</g>
<!-- 7 -->
<g id="node8" class="node">
<title>7</title>
<path fill="none" stroke="#56d89a" stroke-width="2" stroke-dasharray="5,2" d="M182,-468C182,-468 120,-468 120,-468 114,-468 108,-462 108,-456 108,-456 108,-444 108,-444 108,-438 114,-432 120,-432 120,-432 182,-432 182,-432 188,-432 194,-438 194,-444 194,-444 194,-456 194,-456 194,-462 188,-468 182,-468"/>
<text text-anchor="middle" x="151" y="-447.5" font-family="sans" font-size="10.00" fill="#000000">DNA_bwa_map</text>
</g>
<!-- 7&#45;&gt;5 -->
<g id="edge7" class="edge">
<title>7&#45;&gt;5</title>
<path fill="none" stroke="#c0c0c0" stroke-width="2" d="M139.3923,-431.8314C134.2022,-423.7079 127.9768,-413.9637 122.2575,-405.0118"/>
<polygon fill="#c0c0c0" stroke="#c0c0c0" stroke-width="2" points="125.0974,-402.9559 116.764,-396.4133 119.1985,-406.7246 125.0974,-402.9559"/>
</g>
<!-- 8 -->
<g id="node9" class="node">
<title>8</title>
<path fill="none" stroke="#d8b456" stroke-width="2" stroke-dasharray="5,2" d="M214,-540C214,-540 110,-540 110,-540 104,-540 98,-534 98,-528 98,-528 98,-516 98,-516 98,-510 104,-504 110,-504 110,-504 214,-504 214,-504 220,-504 226,-510 226,-516 226,-516 226,-528 226,-528 226,-534 220,-540 214,-540"/>
<text text-anchor="middle" x="162" y="-519.5" font-family="sans" font-size="10.00" fill="#000000">sam_to_interleaved_fastq</text>
</g>
<!-- 8&#45;&gt;7 -->
<g id="edge8" class="edge">
<title>8&#45;&gt;7</title>
<path fill="none" stroke="#c0c0c0" stroke-width="2" d="M159.2242,-503.8314C158.0478,-496.131 156.6489,-486.9743 155.3414,-478.4166"/>
<polygon fill="#c0c0c0" stroke="#c0c0c0" stroke-width="2" points="158.7833,-477.7699 153.8131,-468.4133 151.8636,-478.8272 158.7833,-477.7699"/>
</g>
<!-- 9&#45;&gt;8 -->
<g id="edge9" class="edge">
<title>9&#45;&gt;8</title>
<path fill="none" stroke="#c0c0c0" stroke-width="2" d="M153.0281,-575.8314C154.3115,-568.131 155.8376,-558.9743 157.2639,-550.4166"/>
<polygon fill="#c0c0c0" stroke="#c0c0c0" stroke-width="2" points="160.7394,-550.8526 158.9311,-540.4133 153.8347,-549.7018 160.7394,-550.8526"/>
</g>
</g>
</svg>
