<?xml version="1.0" encoding="UTF-8" standalone="no"?>
<!DOCTYPE svg PUBLIC "-//W3C//DTD SVG 1.1//EN"
 "http://www.w3.org/Graphics/SVG/1.1/DTD/svg11.dtd">
<!-- Generated by graphviz version 2.38.0 (20140413.2041)
 -->
<!-- Title: snakemake_dag Pages: 1 -->
<svg width="252pt" height="692pt"
 viewBox="0.00 0.00 251.50 692.00" xmlns="http://www.w3.org/2000/svg" xmlns:xlink="http://www.w3.org/1999/xlink">
<g id="graph0" class="graph" transform="scale(1 1) rotate(0) translate(4 688)">
<title>snakemake_dag</title>
<polygon fill="white" stroke="none" points="-4,4 -4,-688 247.5,-688 247.5,4 -4,4"/>
<!-- 0 -->
<g id="node1" class="node"><title>0</title>
<path fill="none" stroke="#5682d8" stroke-width="2" stroke-dasharray="5,2" d="M170.5,-36C170.5,-36 64.5,-36 64.5,-36 58.5,-36 52.5,-30 52.5,-24 52.5,-24 52.5,-12 52.5,-12 52.5,-6 58.5,-0 64.5,-0 64.5,-0 170.5,-0 170.5,-0 176.5,-0 182.5,-6 182.5,-12 182.5,-12 182.5,-24 182.5,-24 182.5,-30 176.5,-36 170.5,-36"/>
<text text-anchor="middle" x="117.5" y="-15.5" font-family="sans" font-size="10.00">VaDiR_summary_report</text>
</g>
<!-- 1 -->
<g id="node2" class="node"><title>1</title>
<path fill="none" stroke="#9fd856" stroke-width="2" stroke-dasharray="5,2" d="M169.5,-108C169.5,-108 65.5,-108 65.5,-108 59.5,-108 53.5,-102 53.5,-96 53.5,-96 53.5,-84 53.5,-84 53.5,-78 59.5,-72 65.5,-72 65.5,-72 169.5,-72 169.5,-72 175.5,-72 181.5,-78 181.5,-84 181.5,-84 181.5,-96 181.5,-96 181.5,-102 175.5,-108 169.5,-108"/>
<text text-anchor="middle" x="117.5" y="-87.5" font-family="sans" font-size="10.00">print_recalibrated_bam</text>
</g>
<!-- 1&#45;&gt;0 -->
<g id="edge1" class="edge"><title>1&#45;&gt;0</title>
<path fill="none" stroke="grey" stroke-width="2" d="M117.5,-71.6966C117.5,-63.9827 117.5,-54.7125 117.5,-46.1124"/>
<polygon fill="grey" stroke="grey" stroke-width="2" points="121,-46.1043 117.5,-36.1043 114,-46.1044 121,-46.1043"/>
</g>
<!-- 2 -->
<g id="node3" class="node"><title>2</title>
<path fill="none" stroke="#56d89a" stroke-width="2" stroke-dasharray="5,2" d="M224,-180C224,-180 109,-180 109,-180 103,-180 97,-174 97,-168 97,-168 97,-156 97,-156 97,-150 103,-144 109,-144 109,-144 224,-144 224,-144 230,-144 236,-150 236,-156 236,-156 236,-168 236,-168 236,-174 230,-180 224,-180"/>
<text text-anchor="middle" x="166.5" y="-159.5" font-family="sans" font-size="10.00">base_recalibration_report</text>
</g>
<!-- 2&#45;&gt;1 -->
<g id="edge2" class="edge"><title>2&#45;&gt;1</title>
<path fill="none" stroke="grey" stroke-width="2" d="M154.388,-143.697C148.632,-135.474 141.638,-125.483 135.294,-116.421"/>
<polygon fill="grey" stroke="grey" stroke-width="2" points="138.075,-114.29 129.473,-108.104 132.34,-118.304 138.075,-114.29"/>
</g>
<!-- 3 -->
<g id="node4" class="node"><title>3</title>
<path fill="none" stroke="#56d8c9" stroke-width="2" stroke-dasharray="5,2" d="M153,-252C153,-252 82,-252 82,-252 76,-252 70,-246 70,-240 70,-240 70,-228 70,-228 70,-222 76,-216 82,-216 82,-216 153,-216 153,-216 159,-216 165,-222 165,-228 165,-228 165,-240 165,-240 165,-246 159,-252 153,-252"/>
<text text-anchor="middle" x="117.5" y="-231.5" font-family="sans" font-size="10.00">mark_duplicates</text>
</g>
<!-- 3&#45;&gt;1 -->
<g id="edge3" class="edge"><title>3&#45;&gt;1</title>
<path fill="none" stroke="grey" stroke-width="2" d="M104.773,-215.845C98.2136,-205.923 90.8932,-192.883 87.5,-180 83.4248,-164.528 83.4248,-159.472 87.5,-144 89.9918,-134.539 94.6017,-124.993 99.473,-116.66"/>
<polygon fill="grey" stroke="grey" stroke-width="2" points="102.455,-118.493 104.773,-108.155 96.514,-114.79 102.455,-118.493"/>
</g>
<!-- 3&#45;&gt;2 -->
<g id="edge4" class="edge"><title>3&#45;&gt;2</title>
<path fill="none" stroke="grey" stroke-width="2" d="M129.612,-215.697C135.368,-207.474 142.362,-197.483 148.706,-188.421"/>
<polygon fill="grey" stroke="grey" stroke-width="2" points="151.66,-190.304 154.527,-180.104 145.925,-186.29 151.66,-190.304"/>
</g>
<!-- 4 -->
<g id="node5" class="node"><title>4</title>
<path fill="none" stroke="#d85656" stroke-width="2" stroke-dasharray="5,2" d="M176.5,-324C176.5,-324 58.5,-324 58.5,-324 52.5,-324 46.5,-318 46.5,-312 46.5,-312 46.5,-300 46.5,-300 46.5,-294 52.5,-288 58.5,-288 58.5,-288 176.5,-288 176.5,-288 182.5,-288 188.5,-294 188.5,-300 188.5,-300 188.5,-312 188.5,-312 188.5,-318 182.5,-324 176.5,-324"/>
<text text-anchor="middle" x="117.5" y="-303.5" font-family="sans" font-size="10.00">add_read_groups_to_bam</text>
</g>
<!-- 4&#45;&gt;3 -->
<g id="edge5" class="edge"><title>4&#45;&gt;3</title>
<path fill="none" stroke="grey" stroke-width="2" d="M117.5,-287.697C117.5,-279.983 117.5,-270.712 117.5,-262.112"/>
<polygon fill="grey" stroke="grey" stroke-width="2" points="121,-262.104 117.5,-252.104 114,-262.104 121,-262.104"/>
</g>
<!-- 5 -->
<g id="node6" class="node"><title>5</title>
<path fill="none" stroke="#56d86b" stroke-width="2" stroke-dasharray="5,2" d="M223,-396C223,-396 12,-396 12,-396 6,-396 0,-390 0,-384 0,-384 0,-372 0,-372 0,-366 6,-360 12,-360 12,-360 223,-360 223,-360 229,-360 235,-366 235,-372 235,-372 235,-384 235,-384 235,-390 229,-396 223,-396"/>
<text text-anchor="middle" x="117.5" y="-375.5" font-family="sans" font-size="10.00">merged_mapped_and_unampped_dna_reads</text>
</g>
<!-- 5&#45;&gt;4 -->
<g id="edge6" class="edge"><title>5&#45;&gt;4</title>
<path fill="none" stroke="grey" stroke-width="2" d="M117.5,-359.697C117.5,-351.983 117.5,-342.712 117.5,-334.112"/>
<polygon fill="grey" stroke="grey" stroke-width="2" points="121,-334.104 117.5,-324.104 114,-334.104 121,-334.104"/>
</g>
<!-- 6 -->
<g id="node7" class="node"><title>6</title>
<path fill="none" stroke="#56b1d8" stroke-width="2" stroke-dasharray="5,2" d="M193,-468C193,-468 128,-468 128,-468 122,-468 116,-462 116,-456 116,-456 116,-444 116,-444 116,-438 122,-432 128,-432 128,-432 193,-432 193,-432 199,-432 205,-438 205,-444 205,-444 205,-456 205,-456 205,-462 199,-468 193,-468"/>
<text text-anchor="middle" x="160.5" y="-447.5" font-family="sans" font-size="10.00">DNA_bwa_map</text>
</g>
<!-- 6&#45;&gt;5 -->
<g id="edge7" class="edge"><title>6&#45;&gt;5</title>
<path fill="none" stroke="grey" stroke-width="2" d="M149.871,-431.697C144.872,-423.559 138.809,-413.689 133.288,-404.701"/>
<polygon fill="grey" stroke="grey" stroke-width="2" points="136.223,-402.793 128.007,-396.104 130.259,-406.457 136.223,-402.793"/>
</g>
<!-- 7 -->
<g id="node8" class="node"><title>7</title>
<path fill="none" stroke="#ced856" stroke-width="2" stroke-dasharray="5,2" d="M150,-684C150,-684 85,-684 85,-684 79,-684 73,-678 73,-672 73,-672 73,-660 73,-660 73,-654 79,-648 85,-648 85,-648 150,-648 150,-648 156,-648 162,-654 162,-660 162,-660 162,-672 162,-672 162,-678 156,-684 150,-684"/>
<text text-anchor="middle" x="117.5" y="-663.5" font-family="sans" font-size="10.00">fastq_to_ubam</text>
</g>
<!-- 7&#45;&gt;5 -->
<g id="edge8" class="edge"><title>7&#45;&gt;5</title>
<path fill="none" stroke="grey" stroke-width="2" d="M114.223,-647.821C112.254,-637.451 109.71,-623.971 107.5,-612 98.7229,-564.457 90.1876,-552.154 94.5,-504 97.4005,-471.612 101.597,-463.977 107.5,-432 109.054,-423.583 110.773,-414.42 112.341,-406.117"/>
<polygon fill="grey" stroke="grey" stroke-width="2" points="115.801,-406.656 114.223,-396.179 108.923,-405.353 115.801,-406.656"/>
</g>
<!-- 9 -->
<g id="node10" class="node"><title>9</title>
<path fill="none" stroke="#70d856" stroke-width="2" stroke-dasharray="5,2" d="M193,-612C193,-612 128,-612 128,-612 122,-612 116,-606 116,-600 116,-600 116,-588 116,-588 116,-582 122,-576 128,-576 128,-576 193,-576 193,-576 199,-576 205,-582 205,-588 205,-588 205,-600 205,-600 205,-606 199,-612 193,-612"/>
<text text-anchor="middle" x="160.5" y="-591.5" font-family="sans" font-size="10.00">mark_adapters</text>
</g>
<!-- 7&#45;&gt;9 -->
<g id="edge11" class="edge"><title>7&#45;&gt;9</title>
<path fill="none" stroke="grey" stroke-width="2" d="M128.129,-647.697C133.128,-639.559 139.191,-629.689 144.712,-620.701"/>
<polygon fill="grey" stroke="grey" stroke-width="2" points="147.741,-622.457 149.993,-612.104 141.777,-618.793 147.741,-622.457"/>
</g>
<!-- 8 -->
<g id="node9" class="node"><title>8</title>
<path fill="none" stroke="#d8b456" stroke-width="2" stroke-dasharray="5,2" d="M231.5,-540C231.5,-540 115.5,-540 115.5,-540 109.5,-540 103.5,-534 103.5,-528 103.5,-528 103.5,-516 103.5,-516 103.5,-510 109.5,-504 115.5,-504 115.5,-504 231.5,-504 231.5,-504 237.5,-504 243.5,-510 243.5,-516 243.5,-516 243.5,-528 243.5,-528 243.5,-534 237.5,-540 231.5,-540"/>
<text text-anchor="middle" x="173.5" y="-519.5" font-family="sans" font-size="10.00">sam_to_interleaved_fastq</text>
</g>
<!-- 8&#45;&gt;6 -->
<g id="edge9" class="edge"><title>8&#45;&gt;6</title>
<path fill="none" stroke="grey" stroke-width="2" d="M170.287,-503.697C168.854,-495.983 167.132,-486.712 165.535,-478.112"/>
<polygon fill="grey" stroke="grey" stroke-width="2" points="168.944,-477.297 163.677,-468.104 162.061,-478.575 168.944,-477.297"/>
</g>
<!-- 9&#45;&gt;8 -->
<g id="edge10" class="edge"><title>9&#45;&gt;8</title>
<path fill="none" stroke="grey" stroke-width="2" d="M163.713,-575.697C165.146,-567.983 166.868,-558.712 168.465,-550.112"/>
<polygon fill="grey" stroke="grey" stroke-width="2" points="171.939,-550.575 170.323,-540.104 165.056,-549.297 171.939,-550.575"/>
</g>
</g>
</svg>
